<?xml version="1.0" encoding="utf-8"?>
<!-- Generator: Adobe Illustrator 22.0.1, SVG Export Plug-In . SVG Version: 6.00 Build 0)  -->
<svg version="1.1" id="Layer_1" xmlns="http://www.w3.org/2000/svg" xmlns:xlink="http://www.w3.org/1999/xlink" x="0px" y="0px"
	 viewBox="0 0 30 30" style="enable-background:new 0 0 30 30;" xml:space="preserve">
<style type="text/css">
	.st0{fill:#FFFFFF;}
</style>
<g>
	<g>
		<path class="st0" d="M12.5,15l9.8-9.8c0.3-0.3,0.4-0.6,0.4-1c0-0.4-0.1-0.7-0.4-1l-0.9-0.9c-0.3-0.3-0.6-0.4-1-0.4s-0.7,0.1-1,0.4
			L7.7,14c-0.3,0.3-0.4,0.6-0.4,1c0,0.4,0.1,0.7,0.4,1l11.7,11.7c0.3,0.3,0.6,0.4,1,0.4c0.4,0,0.7-0.1,1-0.4l0.9-0.9
			c0.6-0.6,0.6-1.5,0-2L12.5,15z"/>
	</g>
</g>
<g>
	<g>
		<path class="st0" d="M12.5,15l9.8-9.8c0.3-0.3,0.4-0.6,0.4-1c0-0.4-0.1-0.7-0.4-1l-0.9-0.9c-0.3-0.3-0.6-0.4-1-0.4s-0.7,0.1-1,0.4
			L7.7,14c-0.3,0.3-0.4,0.6-0.4,1c0,0.4,0.1,0.7,0.4,1l11.7,11.7c0.3,0.3,0.6,0.4,1,0.4c0.4,0,0.7-0.1,1-0.4l0.9-0.9
			c0.6-0.6,0.6-1.5,0-2L12.5,15z"/>
	</g>
</g>
</svg>
